<svg version="1.1" id="Layer_1" xmlns="http://www.w3.org/2000/svg" xmlns:xlink="http://www.w3.org/1999/xlink" x="0px" y="0px"
	 width="100%" viewBox="0 0 255 170" enable-background="new 0 0 255 170" xml:space="preserve">
<path fill="#FFFFFF" opacity="1.000000" stroke="none" 
	d="
M86.000000,1.000000 
	C113.687561,1.000000 141.375122,1.000000 169.609955,1.206576 
	C170.303329,1.682661 170.516144,1.880374 170.859497,2.470570 
	C170.930084,35.863029 170.957489,68.791229 170.936523,101.719383 
	C170.922028,124.499886 170.840775,147.280350 170.603470,170.165054 
	C170.201035,170.468643 170.061844,170.712219 170.000000,171.000000 
	C142.645767,171.000000 115.291542,171.000000 87.383224,170.788315 
	C86.670769,170.306427 86.453156,170.098114 86.093094,169.977661 
	C86.009895,170.003647 85.842125,170.051071 85.919403,169.584824 
	C86.001961,132.864853 85.990379,96.611122 86.019379,60.357418 
	C86.034676,41.236610 86.120766,22.115858 86.318710,2.900142 
	C86.364479,2.539737 86.266434,2.274270 86.093071,1.762148 
	C86.011833,1.343662 86.005913,1.171831 86.000000,1.000000 
z"/>
<path fill="#002653" opacity="1.000000" stroke="none" 
	d="
M85.000000,171.000000 
	C57.036282,171.000000 29.072561,171.000000 1.054421,171.000000 
	C1.054421,114.443085 1.054421,57.886101 1.054421,1.000000 
	C28.686691,1.000000 56.374687,1.000000 84.529228,1.468654 
	C84.997055,57.958382 84.998337,113.979462 84.999649,170.250397 
	C84.999680,170.500275 85.000000,171.000000 85.000000,171.000000 
z"/>
<path fill="#CE1127" opacity="1.000000" stroke="none" 
	d="
M172.000000,1.000000 
	C199.963715,1.000000 227.927429,1.000000 255.945572,1.000000 
	C255.945572,57.556900 255.945572,114.113869 255.945572,171.000000 
	C228.313309,171.000000 200.625305,171.000000 172.469803,170.751083 
	C172.002289,170.502167 172.002930,170.004333 172.011322,169.535461 
	C172.013153,113.044395 172.006577,57.022198 172.000000,1.000000 
z"/>
<path fill="#0C253B" opacity="1.000000" stroke="none" 
	d="
M84.999626,170.000534 
	C84.998337,113.979462 84.997055,57.958382 84.997887,1.468654 
	C85.000000,1.000000 85.500000,1.000000 85.750000,1.000000 
	C86.005913,1.171831 86.011833,1.343662 86.025238,2.009180 
	C86.080116,2.666937 86.127510,2.831009 86.174896,2.995080 
	C86.120766,22.115858 86.034676,41.236610 86.019379,60.357418 
	C85.990379,96.611122 86.001961,132.864853 85.709679,169.560532 
	C85.422668,170.002487 84.999626,170.000534 84.999626,170.000534 
z"/>
<path fill="#A02738" opacity="1.000000" stroke="none" 
	d="
M171.750000,1.000000 
	C172.006577,57.022198 172.013153,113.044395 171.800949,169.530914 
	C171.582169,169.995255 171.163986,169.950500 171.066254,169.964264 
	C170.968536,169.978012 170.789368,170.060822 170.789368,170.060822 
	C170.840775,147.280350 170.922028,124.499886 170.936523,101.719383 
	C170.957489,68.791229 170.930084,35.863029 170.946289,2.226215 
	C170.979492,1.345053 170.989746,1.172527 171.000000,1.000000 
	C171.000000,1.000000 171.500000,1.000000 171.750000,1.000000 
z"/>
<path fill="#FFE5EA" opacity="1.000000" stroke="none" 
	d="
M170.750000,1.000000 
	C170.989746,1.172527 170.979492,1.345053 170.882446,1.761935 
	C170.516144,1.880374 170.303329,1.682661 170.078613,1.206576 
	C170.000000,1.000000 170.500000,1.000000 170.750000,1.000000 
z"/>
<path fill="#04244C" opacity="1.000000" stroke="none" 
	d="
M84.999649,170.250397 
	C84.999626,170.000534 85.422668,170.002487 85.632401,170.026779 
	C85.842125,170.051071 86.009895,170.003647 86.013596,170.233780 
	C86.011528,170.642593 86.005760,170.821289 86.000000,171.000000 
	C86.000000,171.000000 85.500000,171.000000 85.250000,171.000000 
	C85.000000,171.000000 84.999680,170.500275 84.999649,170.250397 
z"/>
<path fill="#F1FEFF" opacity="1.000000" stroke="none" 
	d="
M86.250000,171.000000 
	C86.005760,170.821289 86.011528,170.642593 86.096794,170.207794 
	C86.453156,170.098114 86.670769,170.306427 86.914566,170.788315 
	C87.000000,171.000000 86.500000,171.000000 86.250000,171.000000 
z"/>
<path fill="#FFE5EA" opacity="1.000000" stroke="none" 
	d="
M170.250000,171.000000 
	C170.061844,170.712219 170.201035,170.468643 170.603470,170.165054 
	C170.789368,170.060822 170.968536,169.978012 170.992584,170.221802 
	C171.011093,170.643738 171.005539,170.821869 171.000000,171.000000 
	C171.000000,171.000000 170.500000,171.000000 170.250000,171.000000 
z"/>
<path fill="#BC162C" opacity="1.000000" stroke="none" 
	d="
M171.250000,171.000000 
	C171.005539,170.821869 171.011093,170.643738 171.090302,170.208038 
	C171.163986,169.950500 171.582169,169.995255 171.792542,169.999786 
	C172.002930,170.004333 172.002289,170.502167 172.001144,170.751083 
	C172.000000,171.000000 171.500000,171.000000 171.250000,171.000000 
z"/>
<path fill="#F1FEFF" opacity="1.000000" stroke="none" 
	d="
M86.318710,2.900142 
	C86.127510,2.831009 86.080116,2.666937 86.100563,2.255834 
	C86.266434,2.274270 86.364479,2.539737 86.318710,2.900142 
z"/>
</svg>